<svg width="105" height="98" viewBox="0 0 105 98" fill="none" xmlns="http://www.w3.org/2000/svg">
<rect width="105" height="98" rx="49" fill="#CA7900"/>
<path d="M49.9897 53.812C50.2323 53.812 50.419 53.9333 50.5497 54.176C50.699 54.4 50.7737 54.6893 50.7737 55.044C50.7737 55.4733 50.7083 55.8093 50.5777 56.052C50.447 56.2947 50.2417 56.5093 49.9617 56.696C48.8603 57.424 47.1057 58.6187 44.6977 60.28C43.9697 64.144 43.027 67.1867 41.8697 69.408C40.7123 71.6293 39.247 72.74 37.4737 72.74C36.5217 72.74 35.747 72.4413 35.1497 71.844C34.5523 71.2653 34.2537 70.5 34.2537 69.548C34.2537 68.6707 34.4497 67.784 34.8417 66.888C35.2337 65.992 35.9617 64.956 37.0257 63.78C38.1083 62.604 39.6297 61.26 41.5897 59.748L41.6737 59.216C40.199 59.832 38.7523 60.14 37.3337 60.14C35.243 60.14 33.4043 59.7387 31.8177 58.936C30.231 58.1147 28.999 56.9573 28.1217 55.464C27.2443 53.9707 26.8057 52.2347 26.8057 50.256C26.8057 47.4933 27.3283 45.0573 28.3737 42.948C29.419 40.82 30.8563 39.1773 32.6857 38.02C34.5337 36.844 36.5963 36.256 38.8737 36.256C41.0577 36.256 42.691 36.7693 43.7737 37.796C44.875 38.804 45.4257 40.148 45.4257 41.828C45.4257 42.9293 45.2203 43.816 44.8097 44.488C44.4177 45.1413 43.8483 45.468 43.1017 45.468C42.5977 45.468 42.187 45.3467 41.8697 45.104C41.571 44.8613 41.4217 44.5253 41.4217 44.096C41.4217 43.9093 41.459 43.592 41.5337 43.144C41.6457 42.6213 41.7017 42.2107 41.7017 41.912C41.7017 41.128 41.459 40.5213 40.9737 40.092C40.507 39.6627 39.7137 39.448 38.5937 39.448C37.231 39.448 35.9617 39.84 34.7857 40.624C33.6283 41.408 32.695 42.584 31.9857 44.152C31.2763 45.7013 30.9217 47.568 30.9217 49.752C30.9217 51.992 31.5283 53.728 32.7417 54.96C33.9737 56.1733 35.747 56.78 38.0617 56.78C39.3497 56.78 40.6937 56.4907 42.0937 55.912L42.4857 52.496H39.6297C39.107 52.496 38.7057 52.3747 38.4257 52.132C38.1457 51.8707 38.0057 51.4507 38.0057 50.872C38.0057 50.3493 38.1457 49.9387 38.4257 49.64C38.7057 49.3413 39.079 49.192 39.5457 49.192H44.7817C45.1923 49.192 45.5283 49.332 45.7897 49.612C46.0697 49.8733 46.1817 50.256 46.1257 50.76C46.0697 51.3573 45.883 52.7107 45.5657 54.82L45.2577 56.948C46.751 55.828 48.1137 54.8573 49.3457 54.036C49.5883 53.8867 49.803 53.812 49.9897 53.812ZM37.7817 70.024C38.267 70.024 38.799 69.4733 39.3777 68.372C39.9563 67.2707 40.4977 65.4973 41.0017 63.052C39.583 64.2653 38.5563 65.3573 37.9217 66.328C37.3057 67.3173 36.9977 68.1853 36.9977 68.932C36.9977 69.66 37.259 70.024 37.7817 70.024ZM56.865 60.224C54.3823 60.224 52.3943 59.7573 50.901 58.824C49.4077 57.872 48.661 56.4253 48.661 54.484C48.661 53.4573 48.8383 52.6733 49.193 52.132C49.5477 51.5907 50.0703 51.32 50.761 51.32C51.265 51.32 51.6757 51.4507 51.993 51.712C52.3103 51.9733 52.469 52.3093 52.469 52.72C52.469 53.0933 52.441 53.42 52.385 53.7C52.385 53.7747 52.3663 53.9053 52.329 54.092C52.3103 54.2787 52.301 54.4747 52.301 54.68C52.301 55.52 52.721 56.1453 53.561 56.556C54.4197 56.9667 55.6143 57.172 57.145 57.172C58.7317 57.172 59.973 56.892 60.869 56.332C61.765 55.7533 62.213 54.9507 62.213 53.924C62.213 53.2893 62.0077 52.748 61.597 52.3C61.1863 51.8333 60.673 51.4507 60.057 51.152C59.441 50.8347 58.573 50.452 57.453 50.004C56.0157 49.444 54.8397 48.912 53.925 48.408C53.029 47.904 52.2543 47.2227 51.601 46.364C50.9663 45.4867 50.649 44.404 50.649 43.116C50.649 41.772 51.0037 40.5773 51.713 39.532C52.441 38.4867 53.477 37.6747 54.821 37.096C56.1837 36.5173 57.7797 36.228 59.609 36.228C60.9717 36.228 62.2223 36.4333 63.361 36.844C64.4997 37.236 65.405 37.8427 66.077 38.664C66.7677 39.4853 67.113 40.4933 67.113 41.688C67.113 42.864 66.9357 43.7507 66.581 44.348C66.2263 44.9453 65.7037 45.244 65.013 45.244C64.5277 45.244 64.117 45.0947 63.781 44.796C63.4637 44.4973 63.305 44.1427 63.305 43.732C63.305 43.3773 63.333 43.0507 63.389 42.752C63.445 42.192 63.473 41.8373 63.473 41.688C63.473 40.904 63.0903 40.3067 62.325 39.896C61.5597 39.4853 60.6077 39.28 59.469 39.28C57.8637 39.28 56.6317 39.5787 55.773 40.176C54.933 40.7547 54.513 41.576 54.513 42.64C54.513 43.3493 54.7277 43.956 55.157 44.46C55.605 44.964 56.1557 45.384 56.809 45.72C57.4623 46.056 58.377 46.4573 59.553 46.924C60.9717 47.5027 62.1103 48.0253 62.969 48.492C63.8277 48.9587 64.5557 49.5933 65.153 50.396C65.769 51.1987 66.077 52.188 66.077 53.364C66.077 55.5667 65.237 57.2653 63.557 58.46C61.8957 59.636 59.665 60.224 56.865 60.224ZM80.955 36.424C81.4404 36.424 81.851 36.5453 82.187 36.788C82.523 37.012 82.691 37.292 82.691 37.628C82.691 38.2253 82.5044 38.7107 82.131 39.084C81.7577 39.4387 81.2257 39.616 80.535 39.616C79.4524 39.616 78.631 39.6253 78.071 39.644C78.0337 39.868 77.8657 40.876 77.567 42.668C77.231 44.6653 77.0257 45.888 76.951 46.336L76.363 50.004C75.9524 52.748 75.6257 55.044 75.383 56.892C75.775 56.8733 76.307 56.864 76.979 56.864C77.9684 56.864 78.6404 56.9947 78.995 57.256C79.3497 57.5173 79.527 57.9093 79.527 58.432C79.527 58.9173 79.331 59.328 78.939 59.664C78.5657 60 78.0337 60.168 77.343 60.168C76.8764 60.168 76.139 60.1493 75.131 60.112C74.1977 60.0747 73.5817 60.056 73.283 60.056C72.107 60.056 70.819 60.1587 69.419 60.364C68.803 60.4573 68.3644 60.504 68.103 60.504C67.6924 60.504 67.347 60.392 67.067 60.168C66.787 59.944 66.647 59.6173 66.647 59.188C66.647 58.516 66.9457 57.9933 67.543 57.62C68.1404 57.2467 68.9804 57.0507 70.063 57.032L71.379 57.004L71.463 56.388C71.911 53.4013 72.2377 51.292 72.443 50.06L73.059 46.392C73.4324 44.2267 73.7684 41.996 74.067 39.7L71.715 39.728C71.043 39.728 70.5764 39.6253 70.315 39.42C70.0724 39.196 69.951 38.888 69.951 38.496C69.951 37.2267 70.8657 36.5453 72.695 36.452C73.5537 36.4147 74.599 36.396 75.831 36.396L80.955 36.424Z" fill="white"/>
</svg>
